<svg xmlns="http://www.w3.org/2000/svg" viewBox="0 0 64 64">
  <rect width="64" height="64" rx="16" fill="#254236"/>
  <path d="M15 17.5c6.8-1.1 11.7.2 17 3.8 5.3-3.6 10.2-4.9 17-3.8v28c-6.6-1.1-12 .2-17 3.6-5-3.4-10.4-4.7-17-3.6z" fill="#f7f1df"/>
  <path d="M32 21.5v27.6" fill="none" stroke="#254236" stroke-width="3.2" stroke-linecap="round"/>
  <path d="M20 26.5c3.1-.2 5.7.4 8.2 1.8M20 32.5c3.1-.2 5.7.4 8.2 1.8" fill="none" stroke="#254236" stroke-width="2.7" stroke-linecap="round"/>
  <path d="M36.2 28.4 43 21.6h7.1v7.1L43.3 35.5z" fill="#ffb84d"/>
  <circle cx="43" cy="28.4" r="1.8" fill="#254236"/>
</svg>
